Genre:Action | Horror | Thriller
 Language:English
 
http://www.imdb.com/title/tt1258998/

 Source:LIMITED.720p.BluRay.x264-PSYCHD Thanks!
 
Format : AVI
 Format/Info : Audio Video Interleave
 File size : 939 MiB
 Duration : 1h 35mn
 Overall bit rate : 1 375 Kbps
 
Video
 ID : 0
 Format : MPEG-4 Visual
 Format profile : Advanced Simple@L5
 Format settings, BVOP : Yes
 Format settings, QPel : No
 Format settings, GMC : No warppoints
 Format settings, Matrix : Default (H.263)
 Codec ID : XVID
 Codec ID/Hint : XviD
 Duration : 1h 35mn
 Bit rate : 918 Kbps
 Width : 640 pixels
 Height : 272 pixels
 Display aspect ratio : 2.35:1
 Frame rate : 23.976 fps
 Color space : YUV
 Chroma subsampling : 4:2:0
 Bit depth : 8 bits
 Scan type : Progressive
 Bits/(Pixel*Frame) : 0.220
 Stream size : 627 MiB (67%)
 Writing library : XviD 1.2.1 (UTC 2008-12-04)
 
Audio
 ID : 1
 Format : AC-3
 Format/Info : Audio Coding 3
 Mode extension : CM (complete main)
 Codec ID : 2000
 Duration : 1h 35mn
 Bit rate mode : Constant
 Bit rate : 448 Kbps
 Channel(s) : 6 channels
 Channel positions : Front: L C R, Side: L R, LFE
 Sampling rate : 48.0 KHz
 Bit depth : 16 bits
 Stream size : 306 MiB (33%)
 Alignment : Aligned on interleaves
 Interleave, duration : 42 ms (1.00 video frame)
 Interleave, preload duration : 512 ms
 

Plot:
 A simple man, Dr. Walter Newman, has high aspirations to cure all disease through genetic manipulation.
  
http://www.pix2links.com/images/32541771230823150653.png
 
http://www.pix2links.com/images/22090917343408178571.png
 
http://www.pix2links.com/images/20419736005105766682.png
 
http://www.pix2links.com/images/52933876050715281217.png